<svg xmlns="http://www.w3.org/2000/svg" viewBox="0 0 64 64" width="64" height="64">
  <defs>
    <radialGradient id="blBody" cx="38%" cy="30%" r="80%">
      <stop offset="0%" stop-color="#c2453a"></stop>
      <stop offset="42%" stop-color="#8c241d"></stop>
      <stop offset="100%" stop-color="#3e0f0c"></stop>
    </radialGradient>
    <radialGradient id="blField" cx="40%" cy="36%" r="70%">
      <stop offset="0%" stop-color="#7c1f19"></stop>
      <stop offset="100%" stop-color="#2c0a08"></stop>
    </radialGradient>
  </defs>
  <circle cx="32" cy="32" r="29" fill="url(#blBody)" stroke="#1f0705" stroke-width="2"></circle>
  
  <g fill="#3a0d0a">
    <path d="M32 2 l3 5 -6 0 z M62 32 l-5 3 0 -6 z M32 62 l-3 -5 6 0 z M2 32 l5 -3 0 6 z"></path>
    <path d="M52 12 l1 5 -5 -2 z M52 52 l-4 -3 5 -2 z M12 52 l-1 -5 5 2 z M12 12 l4 3 -5 2 z"></path>
  </g>
  <circle cx="32" cy="32" r="25" fill="none" stroke="#cf5247" stroke-width="1.3" opacity="0.55"></circle>
  <circle cx="32" cy="32" r="22" fill="url(#blField)" stroke="#160404" stroke-width="1.4"></circle>
  
  <g stroke="#d8554a" stroke-width="2.2" fill="none" stroke-linecap="round" stroke-linejoin="round">
    <path d="M32 18 L32 46"></path>
    <path d="M21 25 L43 39"></path>
    <path d="M43 25 L21 39"></path>
  </g>
  <g stroke="#7a1812" stroke-width="2.4" fill="none" stroke-linecap="round">
    <path d="M32 18 L29 22 M32 18 L35 22"></path>
    <path d="M32 46 L29 42 M32 46 L35 42"></path>
  </g>
  <circle cx="32" cy="32" r="3" fill="#e0635a" stroke="#4a0f0b" stroke-width="1.2"></circle>
  <ellipse cx="24" cy="19" rx="12" ry="7" fill="#ff8a7e" opacity="0.2"></ellipse>
  <path d="M11 42 A21 21 0 0 0 53 42" fill="none" stroke="#150403" stroke-width="3" opacity="0.34"></path>
</svg>