<svg xmlns="http://www.w3.org/2000/svg" viewBox="0 0 64 64" width="64" height="64">
  <defs>
    <radialGradient id="agBody" cx="38%" cy="30%" r="78%">
      <stop offset="0%" stop-color="#f4f6f9"></stop>
      <stop offset="45%" stop-color="#c2c7ce"></stop>
      <stop offset="100%" stop-color="#73797f"></stop>
    </radialGradient>
    <radialGradient id="agField" cx="40%" cy="36%" r="70%">
      <stop offset="0%" stop-color="#cfd4da"></stop>
      <stop offset="100%" stop-color="#888e95"></stop>
    </radialGradient>
  </defs>
  <circle cx="32" cy="32" r="29" fill="url(#agBody)" stroke="#4c5157" stroke-width="2"></circle>
  <circle cx="32" cy="32" r="25.5" fill="none" stroke="#fbfdff" stroke-width="1.4" opacity="0.8"></circle>
  <circle cx="32" cy="32" r="22" fill="url(#agField)" stroke="#5a6066" stroke-width="1.4"></circle>
  
  <g transform="translate(32 32)">
    <g fill="#6c727a" stroke="#41464c" stroke-width="1.2" stroke-linejoin="round">
      <path d="M0 -16 L3 -3 L0 0 L-3 -3 Z"></path>
      <path d="M0 16 L3 3 L0 0 L-3 3 Z"></path>
      <path d="M-16 0 L-3 -3 L0 0 L-3 3 Z"></path>
      <path d="M16 0 L3 -3 L0 0 L3 3 Z"></path>
      <path d="M-11 -11 L-2 -4 L0 0 L-4 -2 Z"></path>
      <path d="M11 -11 L2 -4 L0 0 L4 -2 Z"></path>
      <path d="M-11 11 L-2 4 L0 0 L-4 2 Z"></path>
      <path d="M11 11 L2 4 L0 0 L4 2 Z"></path>
    </g>
    <circle cx="0" cy="0" r="4.2" fill="#e9edf1" stroke="#41464c" stroke-width="1.3"></circle>
    <circle cx="0" cy="0" r="1.6" fill="#6c727a"></circle>
  </g>
  <ellipse cx="24" cy="19" rx="12" ry="7" fill="#ffffff" opacity="0.34"></ellipse>
  <path d="M11 42 A21 21 0 0 0 53 42" fill="none" stroke="#3a3f45" stroke-width="3" opacity="0.28"></path>
</svg>