<svg xmlns="http://www.w3.org/2000/svg" viewBox="0 0 64 64" width="64" height="64">
  <defs>
    <radialGradient id="brBody" cx="38%" cy="30%" r="78%">
      <stop offset="0%" stop-color="#e0a463"></stop>
      <stop offset="42%" stop-color="#b3733a"></stop>
      <stop offset="100%" stop-color="#5f3a18"></stop>
    </radialGradient>
    <radialGradient id="brField" cx="40%" cy="36%" r="70%">
      <stop offset="0%" stop-color="#b9783f"></stop>
      <stop offset="100%" stop-color="#6e451f"></stop>
    </radialGradient>
  </defs>
  <circle cx="32" cy="32" r="29" fill="url(#brBody)" stroke="#3c2410" stroke-width="2"></circle>
  
  <circle cx="32" cy="32" r="26" fill="none" stroke="#e7b277" stroke-width="1.4" opacity="0.7"></circle>
  <circle cx="32" cy="32" r="23.5" fill="none" stroke="#46290f" stroke-width="1.4" opacity="0.8"></circle>
  <circle cx="32" cy="32" r="21" fill="url(#brField)" stroke="#3c2410" stroke-width="1.4"></circle>
  
  <g stroke="#3a2210" stroke-width="2" fill="#c98b4f" stroke-linejoin="round">
    <path d="M32 14 C30 22 30 38 32 50 C34 38 34 22 32 14 Z"></path>
  </g>
  <g stroke="#3a2210" stroke-width="1.6" fill="#d99a5c">
    <path d="M32 22 C27 21 24 23 23 27 C28 28 31 26 32 22 Z"></path>
    <path d="M32 22 C37 21 40 23 41 27 C36 28 33 26 32 22 Z"></path>
    <path d="M32 30 C27 29 24 31 23 35 C28 36 31 34 32 30 Z"></path>
    <path d="M32 30 C37 29 40 31 41 35 C36 36 33 34 32 30 Z"></path>
    <path d="M32 38 C28 37 25 39 24 42 C29 43 31 41 32 38 Z"></path>
    <path d="M32 38 C36 37 39 39 40 42 C35 43 33 41 32 38 Z"></path>
  </g>
  <ellipse cx="24" cy="19" rx="12" ry="7" fill="#ffe0b0" opacity="0.28"></ellipse>
  <path d="M11 42 A21 21 0 0 0 53 42" fill="none" stroke="#2c1a09" stroke-width="3" opacity="0.3"></path>
</svg>