<svg xmlns="http://www.w3.org/2000/svg" viewBox="0 0 64 64" width="64" height="64">
  <defs>
    <radialGradient id="oldBody" cx="38%" cy="32%" r="75%">
      <stop offset="0%" stop-color="#6b6056"></stop>
      <stop offset="45%" stop-color="#4a443c"></stop>
      <stop offset="100%" stop-color="#26221d"></stop>
    </radialGradient>
    <radialGradient id="oldField" cx="40%" cy="36%" r="70%">
      <stop offset="0%" stop-color="#494139"></stop>
      <stop offset="100%" stop-color="#221e1a"></stop>
    </radialGradient>
  </defs>
  
  <path d="M32 3.5 C44 3 54.5 9 58.5 20 C62 30 60 44 51 52.5 C42 61 27 62 17 55 C6.5 47.5 2.5 33 7 21.5 C11 10.5 21 4 32 3.5 Z" fill="url(#oldBody)" stroke="#191510" stroke-width="2"></path>
  
  <path d="M55 17 l5 -3 -2 6 z M9 44 l-5 4 6 0 z M44 60 l3 4 -6 -1 z" fill="#171410"></path>
  
  <circle cx="32" cy="32" r="25" fill="none" stroke="#7c7064" stroke-width="2" opacity="0.55"></circle>
  <circle cx="32" cy="32" r="22" fill="url(#oldField)" stroke="#15110d" stroke-width="1.5"></circle>
  
  <g stroke="#8a7d6e" stroke-width="2" fill="none" stroke-linecap="round" opacity="0.6">
    <path d="M26 40 L26 26 L32 21 L38 26 L38 40"></path>
    <path d="M23 40 L41 40"></path>
  </g>
  
  <path d="M30 7 L34 20 L28 30 L35 40 L31 57" fill="none" stroke="#0d0a07" stroke-width="2.4" stroke-linecap="round"></path>
  <path d="M34 20 L40 24 M28 30 L21 28 M35 40 L42 44" fill="none" stroke="#0d0a07" stroke-width="1.6" stroke-linecap="round"></path>
  
  <ellipse cx="24" cy="20" rx="12" ry="7" fill="#9c8f7e" opacity="0.22"></ellipse>
  
  <path d="M14 44 A22 22 0 0 0 50 44" fill="none" stroke="#000" stroke-width="3" opacity="0.3"></path>
</svg>